<?xml version="1.0" encoding="UTF-8"?>
<!DOCTYPE svg PUBLIC "-//W3C//DTD SVG 1.1//EN" "http://www.w3.org/Graphics/SVG/1.1/DTD/svg11.dtd">
<svg xmlns="http://www.w3.org/2000/svg" version="1.1" width="160px" height="160px" style="shape-rendering:geometricPrecision; text-rendering:geometricPrecision; image-rendering:optimizeQuality; fill-rule:evenodd; clip-rule:evenodd" xmlns:xlink="http://www.w3.org/1999/xlink">
<g><path style="opacity:1" fill="#fefdfd" d="M -0.5,-0.5 C 52.8333,-0.5 106.167,-0.5 159.5,-0.5C 159.5,52.8333 159.5,106.167 159.5,159.5C 106.167,159.5 52.8333,159.5 -0.5,159.5C -0.5,106.167 -0.5,52.8333 -0.5,-0.5 Z"/></g>
<g><path style="opacity:1" fill="#412e3b" d="M 97.5,34.5 C 98.6433,37.9758 98.8099,41.6425 98,45.5C 96.7092,49.0676 94.8759,49.401 92.5,46.5C 92.3433,45.1266 92.51,43.7932 93,42.5C 94.7774,39.9406 96.2774,37.2739 97.5,34.5 Z"/></g>
<g><path style="opacity:1" fill="#da7243" d="M 99.5,29.5 C 99.1075,31.2838 98.4408,32.9505 97.5,34.5C 96.2774,37.2739 94.7774,39.9406 93,42.5C 92.51,43.7932 92.3433,45.1266 92.5,46.5C 92.8333,48.5 93.1667,50.5 93.5,52.5C 91.5714,52.2308 89.9047,52.7308 88.5,54C 90.3817,54.1981 92.0484,54.6981 93.5,55.5C 89.3437,55.3203 87.0104,57.3203 86.5,61.5C 85.5489,62.9187 85.2155,64.5853 85.5,66.5C 84.5,66.5 83.5,66.5 82.5,66.5C 80.1667,66.5 77.8333,66.5 75.5,66.5C 74.0221,65.5525 73.0221,64.2191 72.5,62.5C 72.0283,56.1374 69.195,54.4707 64,57.5C 63.5065,59.1341 63.3398,60.8008 63.5,62.5C 61.7839,62.6287 60.1172,62.962 58.5,63.5C 58.5382,60.0489 59.2049,56.7156 60.5,53.5C 56.9196,44.8338 56.7529,36.1671 60,27.5C 63.5,32.5 67,37.5 70.5,42.5C 76.5643,41.9355 82.5643,42.6022 88.5,44.5C 88.4914,42.6916 88.9914,41.0249 90,39.5C 93.4246,35.9104 96.2579,31.9104 98.5,27.5C 99.2975,27.9569 99.6309,28.6236 99.5,29.5 Z"/></g>
<g><path style="opacity:1" fill="#4a313b" d="M 59.5,34.5 C 61.8682,36.8428 64.0348,39.5095 66,42.5C 67.0748,45.5309 66.0748,47.5309 63,48.5C 60.0568,44.3708 58.8902,39.7041 59.5,34.5 Z"/></g>
<g><path style="opacity:1" fill="#b05d42" d="M 99.5,29.5 C 100.932,33.3985 101.932,37.3985 102.5,41.5C 101.014,45.1391 99.6807,49.3058 98.5,54C 99.0909,57.5272 99.7575,61.0272 100.5,64.5C 99.5416,64.0472 98.7083,63.3805 98,62.5C 97.2917,63.3805 96.4584,64.0472 95.5,64.5C 95.8893,61.4467 95.2227,58.78 93.5,56.5C 93.5,56.1667 93.5,55.8333 93.5,55.5C 92.0484,54.6981 90.3817,54.1981 88.5,54C 89.9047,52.7308 91.5714,52.2308 93.5,52.5C 93.1667,50.5 92.8333,48.5 92.5,46.5C 94.8759,49.401 96.7092,49.0676 98,45.5C 98.8099,41.6425 98.6433,37.9758 97.5,34.5C 98.4408,32.9505 99.1075,31.2838 99.5,29.5 Z"/></g>
<g><path style="opacity:1" fill="#604041" d="M 65.5,52.5 C 67.4286,52.2308 69.0953,52.7308 70.5,54C 68.925,53.621 67.425,53.7877 66,54.5C 65.5357,53.9056 65.369,53.2389 65.5,52.5 Z"/></g>
<g><path style="opacity:1" fill="#dcd3d1" d="M 72.5,62.5 C 72.5,63.8333 72.5,65.1667 72.5,66.5C 70.1432,66.6633 67.8098,66.4966 65.5,66C 64.1772,65.1841 63.5106,64.0174 63.5,62.5C 63.3398,60.8008 63.5065,59.1341 64,57.5C 69.195,54.4707 72.0283,56.1374 72.5,62.5 Z"/></g>
<g><path style="opacity:1" fill="#f3ece9" d="M 93.5,55.5 C 93.5,55.8333 93.5,56.1667 93.5,56.5C 93.6716,57.4916 93.3382,58.1583 92.5,58.5C 90.5956,58.7376 89.2623,59.7376 88.5,61.5C 87.71,62.6085 87.21,63.9419 87,65.5C 86.51,64.2068 86.3433,62.8734 86.5,61.5C 87.0104,57.3203 89.3437,55.3203 93.5,55.5 Z"/></g>
<g><path style="opacity:1" fill="#302129" d="M 67.5,59.5 C 68.4959,59.4142 69.3292,59.7476 70,60.5C 70.4935,62.1341 70.6602,63.8008 70.5,65.5C 65.2918,65.5334 64.2918,63.5334 67.5,59.5 Z"/></g>
<g><path style="opacity:1" fill="#38222e" d="M 92.5,58.5 C 94.7429,63.0902 93.4096,65.4236 88.5,65.5C 88.5,64.1667 88.5,62.8333 88.5,61.5C 89.2623,59.7376 90.5956,58.7376 92.5,58.5 Z"/></g>
<g><path style="opacity:1" fill="#d75e50" d="M 100.5,64.5 C 102.168,66.4786 102.834,68.812 102.5,71.5C 98.2153,70.7917 93.882,70.2917 89.5,70C 87.9069,69.0513 86.5736,67.8846 85.5,66.5C 89.162,66.9661 92.4954,66.2994 95.5,64.5C 96.4584,64.0472 97.2917,63.3805 98,62.5C 98.7083,63.3805 99.5416,64.0472 100.5,64.5 Z"/></g>
<g><path style="opacity:1" fill="#d35d4f" d="M 63.5,62.5 C 63.5106,64.0174 64.1772,65.1841 65.5,66C 67.8098,66.4966 70.1432,66.6633 72.5,66.5C 71.7101,67.7942 70.7101,68.9609 69.5,70C 65.5,70.3333 61.5,70.6667 57.5,71C 56.7476,71.6708 56.4142,72.5041 56.5,73.5C 55.7566,70.7892 55.4232,68.1225 55.5,65.5C 56.5,64.8333 57.5,64.1667 58.5,63.5C 60.1172,62.962 61.7839,62.6287 63.5,62.5 Z"/></g>
<g><path style="opacity:1" fill="#c9b7b3" d="M 93.5,56.5 C 95.2227,58.78 95.8893,61.4467 95.5,64.5C 92.4954,66.2994 89.162,66.9661 85.5,66.5C 85.2155,64.5853 85.5489,62.9187 86.5,61.5C 86.3433,62.8734 86.51,64.2068 87,65.5C 87.21,63.9419 87.71,62.6085 88.5,61.5C 88.5,62.8333 88.5,64.1667 88.5,65.5C 93.4096,65.4236 94.7429,63.0902 92.5,58.5C 93.3382,58.1583 93.6716,57.4916 93.5,56.5 Z"/></g>
<g><path style="opacity:1" fill="#412c37" d="M 55.5,65.5 C 55.4232,68.1225 55.7566,70.7892 56.5,73.5C 56.8333,74.1667 57.1667,74.8333 57.5,75.5C 52.9058,83.3573 49.4058,91.6906 47,100.5C 45.9786,108.064 46.8119,115.398 49.5,122.5C 47.1397,120.287 45.3063,117.621 44,114.5C 43.3333,115.833 42.6667,115.833 42,114.5C 41.4954,112.482 40.9954,110.482 40.5,108.5C 40.8076,106.076 40.4742,103.743 39.5,101.5C 38.8933,101.624 38.56,101.957 38.5,102.5C 37.0444,97.983 37.711,92.983 40.5,87.5C 39.7376,87.0894 38.7376,86.9227 37.5,87C 39.3167,82.1738 42.3167,78.1738 46.5,75C 46.0411,73.0573 47.0411,71.724 49.5,71C 48.8333,70.6667 48.1667,70.3333 47.5,70C 49.7357,67.7159 52.4024,66.2159 55.5,65.5 Z"/></g>
<g><path style="opacity:1" fill="#ebb08b" d="M 72.5,62.5 C 73.0221,64.2191 74.0221,65.5525 75.5,66.5C 77.8333,71.8333 80.1667,71.8333 82.5,66.5C 83.5,66.5 84.5,66.5 85.5,66.5C 86.5736,67.8846 87.9069,69.0513 89.5,70C 93.882,70.2917 98.2153,70.7917 102.5,71.5C 101.585,73.7541 100.252,75.7541 98.5,77.5C 97.5,77.8333 96.8333,78.5 96.5,79.5C 88.9933,73.2492 83.3266,74.5825 79.5,83.5C 78.8333,83.5 78.1667,83.5 77.5,83.5C 69.6931,83.5937 63.0265,80.9271 57.5,75.5C 57.1667,74.8333 56.8333,74.1667 56.5,73.5C 56.4142,72.5041 56.7476,71.6708 57.5,71C 61.5,70.6667 65.5,70.3333 69.5,70C 70.7101,68.9609 71.7101,67.7942 72.5,66.5C 72.5,65.1667 72.5,63.8333 72.5,62.5 Z"/></g>
<g><path style="opacity:1" fill="#e5e4e5" d="M 76.5,74.5 C 78.1667,74.5 79.8333,74.5 81.5,74.5C 81.5,75.5 81.5,76.5 81.5,77.5C 78.715,78.0838 77.0483,77.0838 76.5,74.5 Z"/></g>
<g><path style="opacity:1" fill="#43303c" d="M 75.5,66.5 C 77.8333,66.5 80.1667,66.5 82.5,66.5C 80.1667,71.8333 77.8333,71.8333 75.5,66.5 Z"/></g>
<g><path style="opacity:1" fill="#d67043" d="M 57.5,75.5 C 63.0265,80.9271 69.6931,83.5937 77.5,83.5C 76.1667,86.5 76.1667,89.5 77.5,92.5C 73.6554,97.2625 68.6554,100.262 62.5,101.5C 60.5321,105.974 60.0321,110.64 61,115.5C 62.7818,118.632 63.9484,121.965 64.5,125.5C 63.4062,126.582 62.0729,127.248 60.5,127.5C 57.3636,126.677 54.3636,125.677 51.5,124.5C 51.1667,123.5 50.5,122.833 49.5,122.5C 46.8119,115.398 45.9786,108.064 47,100.5C 49.4058,91.6906 52.9058,83.3573 57.5,75.5 Z"/></g>
<g><path style="opacity:1" fill="#b26f2f" d="M 96.5,79.5 C 96.5,81.8333 96.5,84.1667 96.5,86.5C 94.8333,87.8333 93.1667,87.8333 91.5,86.5C 92.525,86.1034 92.6917,85.4368 92,84.5C 90.1509,83.4392 88.1509,82.7725 86,82.5C 84.6244,82.6842 83.7911,83.3509 83.5,84.5C 82.5,84.5 81.5,84.5 80.5,84.5C 80.1667,84.5 79.8333,84.5 79.5,84.5C 79.5,84.1667 79.5,83.8333 79.5,83.5C 83.3266,74.5825 88.9933,73.2492 96.5,79.5 Z"/></g>
<g><path style="opacity:1" fill="#ebd6ce" d="M 91.5,86.5 C 88.5794,86.7174 85.9128,86.0507 83.5,84.5C 83.7911,83.3509 84.6244,82.6842 86,82.5C 88.1509,82.7725 90.1509,83.4392 92,84.5C 92.6917,85.4368 92.525,86.1034 91.5,86.5 Z"/></g>
<g><path style="opacity:1" fill="#884439" d="M 102.5,41.5 C 104.435,40.291 106.435,40.4577 108.5,42C 108.167,42.3333 107.833,42.6667 107.5,43C 111.544,43.8558 115.211,45.5224 118.5,48C 117.833,48.3333 117.167,48.6667 116.5,49C 121.927,52.1996 121.594,54.0329 115.5,54.5C 116.193,55.5178 116.859,56.5178 117.5,57.5C 114.148,59.7139 112.815,62.8806 113.5,67C 114.036,73.9831 116.036,80.4831 119.5,86.5C 118.833,86.8333 118.167,87.1667 117.5,87.5C 118.809,90.7359 119.809,94.0692 120.5,97.5C 119.076,103.285 117.243,108.951 115,114.5C 114.333,115.833 113.667,115.833 113,114.5C 111.71,116.792 110.043,118.792 108,120.5C 108,119.167 108,117.833 108,116.5C 106.242,118.765 104.075,120.432 101.5,121.5C 103.111,116.279 104.111,110.946 104.5,105.5C 103.7,95.8886 101.7,86.5553 98.5,77.5C 100.252,75.7541 101.585,73.7541 102.5,71.5C 102.834,68.812 102.168,66.4786 100.5,64.5C 99.7575,61.0272 99.0909,57.5272 98.5,54C 99.6807,49.3058 101.014,45.1391 102.5,41.5 Z"/></g>
<g><path style="opacity:1" fill="#784942" d="M 77.5,83.5 C 78.1667,83.5 78.8333,83.5 79.5,83.5C 79.5,83.8333 79.5,84.1667 79.5,84.5C 79.0033,86.5972 78.67,88.4305 78.5,90C 79.305,91.1127 79.9717,92.2794 80.5,93.5C 79.391,93.4431 78.391,93.1098 77.5,92.5C 76.1667,89.5 76.1667,86.5 77.5,83.5 Z"/></g>
<g><path style="opacity:1" fill="#f4b68e" d="M 77.5,92.5 C 78.391,93.1098 79.391,93.4431 80.5,93.5C 89.5042,96.496 92.1709,102.163 88.5,110.5C 83.0392,118.954 75.3725,124.288 65.5,126.5C 65.5,125.833 65.1667,125.5 64.5,125.5C 63.9484,121.965 62.7818,118.632 61,115.5C 60.0321,110.64 60.5321,105.974 62.5,101.5C 68.6554,100.262 73.6554,97.2625 77.5,92.5 Z"/></g>
<g><path style="opacity:1" fill="#b35e40" d="M 98.5,77.5 C 101.7,86.5553 103.7,95.8886 104.5,105.5C 104.111,110.946 103.111,116.279 101.5,121.5C 99.6591,125.183 97.3258,128.516 94.5,131.5C 93.7611,131.369 93.0944,131.536 92.5,132C 94.9574,133.512 94.9574,134.846 92.5,136C 88.5369,137.137 85.2036,136.303 82.5,133.5C 82.5,133.167 82.5,132.833 82.5,132.5C 83.3952,126.647 85.5618,121.314 89,116.5C 89.7891,114.288 89.6225,112.288 88.5,110.5C 92.1709,102.163 89.5042,96.496 80.5,93.5C 79.9717,92.2794 79.305,91.1127 78.5,90C 78.67,88.4305 79.0033,86.5972 79.5,84.5C 79.8333,84.5 80.1667,84.5 80.5,84.5C 80.5,86.8333 80.5,89.1667 80.5,91.5C 82.9095,92.3835 85.2429,93.5502 87.5,95C 92.0864,95.7676 95.2531,93.9342 97,89.5C 97.7401,88.2506 97.5735,87.2506 96.5,86.5C 96.5,84.1667 96.5,81.8333 96.5,79.5C 96.8333,78.5 97.5,77.8333 98.5,77.5 Z"/></g>
<g><path style="opacity:1" fill="#dc7344" d="M 80.5,84.5 C 81.5,84.5 82.5,84.5 83.5,84.5C 85.9128,86.0507 88.5794,86.7174 91.5,86.5C 93.1667,87.8333 94.8333,87.8333 96.5,86.5C 97.5735,87.2506 97.7401,88.2506 97,89.5C 95.2531,93.9342 92.0864,95.7676 87.5,95C 85.2429,93.5502 82.9095,92.3835 80.5,91.5C 80.5,89.1667 80.5,86.8333 80.5,84.5 Z"/></g>
<g><path style="opacity:1" fill="#8b8287" d="M 38.5,102.5 C 38.56,101.957 38.8933,101.624 39.5,101.5C 40.4742,103.743 40.8076,106.076 40.5,108.5C 39.8333,106.5 39.1667,104.5 38.5,102.5 Z"/></g>
<g><path style="opacity:1" fill="#452f38" d="M 117.5,57.5 C 118.043,57.56 118.376,57.8933 118.5,58.5C 114.683,65.3547 114.517,72.3547 118,79.5C 121.971,82.6972 124.471,86.8638 125.5,92C 124.27,94.5131 124.27,97.0131 125.5,99.5C 125.518,101.373 125.018,101.706 124,100.5C 123.499,104.51 122.999,108.51 122.5,112.5C 121.5,112.5 120.5,112.5 119.5,112.5C 117.59,116.811 115.257,120.978 112.5,125C 107.086,127.832 101.086,129.999 94.5,131.5C 97.3258,128.516 99.6591,125.183 101.5,121.5C 104.075,120.432 106.242,118.765 108,116.5C 108,117.833 108,119.167 108,120.5C 110.043,118.792 111.71,116.792 113,114.5C 113.667,115.833 114.333,115.833 115,114.5C 117.243,108.951 119.076,103.285 120.5,97.5C 119.809,94.0692 118.809,90.7359 117.5,87.5C 118.167,87.1667 118.833,86.8333 119.5,86.5C 116.036,80.4831 114.036,73.9831 113.5,67C 112.815,62.8806 114.148,59.7139 117.5,57.5 Z"/></g>
<g><path style="opacity:1" fill="#d89d79" d="M 88.5,110.5 C 89.6225,112.288 89.7891,114.288 89,116.5C 85.5618,121.314 83.3952,126.647 82.5,132.5C 77.1667,132.5 71.8333,132.5 66.5,132.5C 66.4828,130.435 66.1495,128.435 65.5,126.5C 75.3725,124.288 83.0392,118.954 88.5,110.5 Z"/></g>
<g><path style="opacity:1" fill="#ae5c41" d="M 51.5,124.5 C 54.3636,125.677 57.3636,126.677 60.5,127.5C 62.0729,127.248 63.4062,126.582 64.5,125.5C 65.1667,125.5 65.5,125.833 65.5,126.5C 66.1495,128.435 66.4828,130.435 66.5,132.5C 66.5,132.833 66.5,133.167 66.5,133.5C 62.2663,136.211 58.2663,136.045 54.5,133C 55.3567,132.311 56.0233,131.478 56.5,130.5C 54.8103,128.481 53.1436,126.481 51.5,124.5 Z"/></g>
<g><path style="opacity:1" fill="#594142" d="M 66.5,133.5 C 66.5,133.167 66.5,132.833 66.5,132.5C 71.8333,132.5 77.1667,132.5 82.5,132.5C 82.5,132.833 82.5,133.167 82.5,133.5C 77.1667,134.833 71.8333,134.833 66.5,133.5 Z"/></g>
</svg>
